<svg width="59" height="20" viewBox="0 0 59 20" fill="none" xmlns="http://www.w3.org/2000/svg">
<path d="M9.63579 0C8.97711 1.35506 8.32425 2.71395 7.69617 4.08054C14.9009 4.09206 22.1071 4.08438 29.3104 4.08438C29.5596 4.1292 29.6193 3.87945 29.7111 3.73345C30.2941 2.48598 30.8886 1.24363 31.4832 0.00128077C24.2012 0.00512308 16.9192 0.00768462 9.63579 0.00128077V0Z" fill="#296BFF"/>
<path d="M6.05674 7.49885C5.41991 8.85647 4.75831 10.2064 4.13168 11.5679C11.4166 11.5653 18.7 11.5755 25.9849 11.5627C26.6174 10.2051 27.2717 8.85519 27.9129 7.49885C20.628 7.49373 13.3431 7.49629 6.05674 7.49885Z" fill="#296BFF"/>
<path d="M17.0752 14.9799C12.2123 14.9902 7.34934 14.9569 2.48643 14.9966C1.85252 16.3542 1.19092 17.7016 0.562836 19.0605C7.84481 19.0605 15.1268 19.0592 22.4102 19.0617C23.0558 17.7029 23.7101 16.3478 24.3426 14.9851C21.9206 14.9722 19.4971 14.9838 17.0752 14.9799Z" fill="#296BFF"/>
<path d="M27.1201 19.0618L33.041 7.49641L37.0937 19.0618H27.1201Z" fill="#296BFF"/>
<path d="M40.2093 19.0618L46.1317 7.49641L50.1829 19.0618H40.2093Z" fill="#296BFF"/>
<path d="M45.1961 0L39.2752 11.5654L35.2226 0H45.1961Z" fill="#296BFF"/>
<path d="M58.0667 0L52.1444 11.5654L48.0932 0H58.0667Z" fill="#296BFF"/>
</svg>
