<svg width="32" height="32" viewBox="0 0 32 32" fill="none" xmlns="http://www.w3.org/2000/svg">
<path d="M32 16.0006C32 24.8372 24.8366 32.0006 16 32.0006C7.16344 32.0006 0 24.8372 0 16.0006C0 7.16406 7.16344 0.000619888 16 0.000619888C24.8366 0.000619888 32 7.16406 32 16.0006Z" fill="#6A6A6A" fill-opacity="0.2"/>
<path fill-rule="evenodd" clip-rule="evenodd" d="M5.42069 28.0041C6.41193 23.0677 10.7717 19.3495 16 19.3495C21.2283 19.3495 25.5881 23.0677 26.5793 28.0041C29.9033 25.0723 32 20.7813 32 16.0006C32 7.16406 24.8366 0.000619888 16 0.000619888C7.16344 0.000619888 0 7.16406 0 16.0006C0 20.7813 2.0967 25.0723 5.42069 28.0041ZM21.9535 11.1634C21.9535 14.4514 19.288 17.1169 16 17.1169C12.712 17.1169 10.0465 14.4514 10.0465 11.1634C10.0465 7.87539 12.712 5.20992 16 5.20992C19.288 5.20992 21.9535 7.87539 21.9535 11.1634Z" fill="white"/>
</svg>
